# xmcd
#
# Track frame offsets: 
#        150
#        13727
#        27802
#        40341
#        58221
#        84593
#        98729
#        110546
#        128486
#        141804
#
# Disc length: 2159 seconds
#
# Revision: 0
# Processed by: cddbd v1.5.2PL0 Copyright (c) Steve Scherf et al.
# Submitted via: ExactAudioCopy v0.95b3
#
DISCID=7e086d0a
DTITLE=Don Harrison Band  - The Don Harrison Band  1976  FLAC
DYEAR=1900
DGENRE=
TTITLE0=Sixteen Tons
TTITLE1=Who I Really Am
TTITLE2=Rock 'N' Roll Records
TTITLE3=Fame and Fortune
TTITLE4=Sometimes Loving You
TTITLE5=Romance
TTITLE6=Sweatwater William
TTITLE7=Barroom Dancing Girl
TTITLE8=A Bit Of Love
TTITLE9=Living Another Day
EXTD=
EXTT0=
EXTT1=
EXTT2=
EXTT3=
EXTT4=
EXTT5=
EXTT6=
EXTT7=
EXTT8=
EXTT9=
PLAYORDER=
